<?xml version="1.0" standalone="no"?>
<!DOCTYPE svg PUBLIC "-//W3C//DTD SVG 20010904//EN"
 "http://www.w3.org/TR/2001/REC-SVG-20010904/DTD/svg10.dtd">
<svg version="1.0" xmlns="http://www.w3.org/2000/svg"
 width="260.000000pt" height="260.000000pt" viewBox="0 0 260.000000 260.000000"
 preserveAspectRatio="xMidYMid meet">
<metadata>
Created by potrace 1.11, written by Peter Selinger 2001-2013
</metadata>
<g transform="translate(0.000000,260.000000) scale(0.100000,-0.100000)"
fill="#000000" stroke="none">
<path d="M1134 2538 c-4 -13 -23 -57 -43 -98 -27 -57 -36 -88 -36 -130 -1 -72
-9 -83 -50 -76 -18 4 -44 2 -58 -3 -21 -8 -26 -18 -31 -65 -5 -36 -12 -56 -21
-56 -7 0 -37 -11 -67 -25 -42 -19 -69 -25 -129 -25 -67 0 -78 -3 -98 -24 -22
-24 -23 -26 -8 -73 9 -26 19 -64 22 -83 12 -62 30 -80 80 -80 34 0 45 -4 45
-15 0 -9 14 -41 30 -72 17 -31 30 -61 30 -68 0 -6 9 -21 21 -34 28 -30 27 -36
-53 -282 -14 -43 -26 -65 -34 -62 -6 2 -15 0 -19 -6 -3 -6 -19 -11 -35 -11
-27 0 -29 -2 -24 -30 4 -18 1 -36 -7 -46 -8 -10 -9 -18 -2 -22 5 -4 18 -24 28
-45 17 -36 17 -41 2 -90 -9 -29 -20 -65 -25 -82 -7 -26 -13 -29 -52 -32 -52
-4 -68 -16 -50 -38 11 -13 10 -19 -9 -38 -21 -24 -29 -53 -11 -42 19 12 41
-15 30 -35 -13 -25 -13 -30 5 -30 20 0 19 -19 -5 -88 -11 -31 -26 -80 -34
-107 -8 -28 -35 -120 -61 -205 -77 -256 -86 -293 -75 -304 13 -13 33 40 100
274 10 36 28 94 39 130 11 36 34 115 52 175 23 81 38 116 57 132 26 22 54 21
46 -2 -3 -7 0 -23 6 -35 11 -21 12 -21 25 -3 12 17 14 16 26 -10 14 -31 27
-35 36 -10 5 14 8 13 14 -5 13 -34 39 -28 39 8 0 27 2 29 19 18 11 -7 22 -22
25 -34 3 -12 17 -36 31 -53 l26 -30 -24 -16 c-59 -38 -55 -110 9 -155 36 -26
70 -75 56 -84 -15 -9 -63 7 -85 30 -28 30 -78 31 -117 2 -32 -23 -42 -62 -14
-51 23 9 33 -13 26 -61 -4 -34 -3 -39 9 -30 23 19 53 21 65 5 9 -12 15 -12 25
-4 30 25 82 25 145 0 70 -28 88 -23 110 29 22 52 18 74 -11 74 -22 0 -25 4
-25 40 0 39 1 40 34 40 31 0 34 -3 44 -43 14 -53 44 -82 102 -97 110 -27 140
-48 140 -96 0 -29 -4 -34 -32 -42 -42 -11 -60 -44 -46 -83 11 -31 26 -36 47
-17 11 10 14 10 18 1 7 -18 60 -16 67 2 7 19 26 19 26 0 0 -25 29 -17 36 10 5
19 11 24 25 20 14 -5 19 -1 21 12 3 34 -2 58 -18 94 -15 36 -15 37 11 63 18
18 25 35 23 54 -3 25 -7 27 -46 27 -34 0 -48 5 -63 24 -10 13 -19 31 -19 40 0
9 -16 29 -35 44 -40 32 -50 66 -13 46 16 -9 34 -9 75 0 52 12 73 31 34 31 -30
0 -34 17 -6 24 13 3 30 16 37 29 20 35 14 181 -11 256 -28 85 -27 131 2 159
24 23 61 29 72 12 12 -19 -5 -31 -26 -19 -27 14 -35 5 -21 -26 13 -28 57 -44
75 -26 17 17 37 13 37 -9 0 -27 -30 -100 -42 -100 -5 0 -14 14 -20 31 -9 27
-12 29 -20 14 -12 -21 -2 -79 16 -94 8 -7 11 -28 8 -64 -6 -74 16 -123 64
-143 35 -15 39 -14 63 4 14 10 27 31 29 45 4 32 -1 34 -29 6 -44 -44 -84 3
-74 86 4 28 18 76 33 109 66 148 -6 283 -140 262 -22 -4 -51 -14 -65 -23 -29
-19 -63 -91 -63 -133 0 -18 -11 -39 -30 -58 -37 -38 -39 -56 -5 -49 24 4 24 3
10 -13 -21 -24 -19 -43 4 -37 17 4 19 2 10 -21 -5 -14 -7 -32 -4 -40 5 -13 8
-12 23 2 29 26 42 19 42 -21 0 -58 -10 -68 -54 -53 -117 38 -226 139 -226 208
0 11 5 7 14 -10 25 -48 26 -49 51 -32 27 17 56 93 48 123 -3 12 -1 21 6 21 6
0 13 -11 17 -25 16 -62 52 3 42 75 -5 35 2 38 21 9 10 -18 15 -19 22 -8 13 21
10 109 -6 154 -15 41 -11 63 6 32 6 -9 17 -17 26 -17 22 0 12 94 -16 143 l-21
38 24 22 c13 12 27 32 31 45 7 23 6 23 -24 8 -72 -38 -84 -13 -23 52 77 84 77
83 61 93 -8 5 -21 6 -30 4 -10 -4 -32 10 -58 36 -39 39 -41 43 -25 60 9 10 14
25 11 34 -7 17 -46 21 -48 5 -1 -5 -2 -16 -3 -22 -1 -9 -17 -12 -56 -9 -43 2
-60 9 -78 28 -13 14 -25 24 -27 22 -5 -5 -27 -119 -30 -150 -3 -39 -13 -49
-53 -49 -20 0 -44 -5 -52 -10 -13 -9 -13 -12 3 -21 30 -18 -8 -56 -75 -75 -31
-9 -64 -24 -72 -33 -14 -16 -14 -21 3 -57 11 -22 29 -48 41 -59 21 -19 22 -19
32 -1 7 12 17 16 33 12 13 -3 27 -2 30 4 12 19 33 10 43 -19 12 -34 5 -46 -15
-29 -8 6 -27 12 -44 12 -32 1 -44 -19 -37 -65 2 -19 10 -25 36 -27 25 -3 32
-8 30 -20 -2 -12 -14 -17 -38 -17 -25 0 -36 -5 -38 -18 -5 -23 -26 -17 -30 9
-2 10 -8 23 -13 28 -13 14 -48 -35 -49 -66 0 -32 -3 -33 -35 -12 -30 20 -45
63 -45 133 0 33 -6 65 -14 77 -16 23 -18 12 33 189 58 198 51 185 114 220 213
118 388 118 747 -2 148 -49 205 -58 235 -39 14 9 29 33 35 56 6 22 15 40 21
40 16 0 52 -21 77 -46 43 -42 92 -58 174 -59 62 0 82 4 104 21 45 33 39 39
-39 39 -51 0 -80 5 -92 15 -17 14 -12 15 54 21 56 4 77 10 94 27 l21 22 -47 0
c-26 0 -72 9 -103 19 -47 17 -69 31 -131 81 -29 24 -112 52 -165 57 -65 6 -88
-5 -88 -43 0 -28 -22 -31 -72 -10 -88 38 -337 106 -390 106 -43 0 -41 -3 -63
130 -9 52 -23 101 -30 109 -10 10 -41 14 -109 15 -52 1 -97 4 -101 8 -11 11
17 86 41 109 18 17 24 33 24 68 1 25 7 76 14 114 10 54 10 67 0 67 -7 0 -16
-10 -20 -22z m114 -406 c2 -7 -6 -12 -17 -12 -12 0 -21 -5 -21 -11 0 -6 6 -9
14 -6 8 3 16 -2 19 -14 4 -15 2 -19 -8 -15 -16 6 -29 -9 -20 -24 4 -6 13 -5
25 2 11 7 23 9 27 4 12 -12 -27 -36 -59 -36 -26 0 -28 3 -28 38 0 20 -3 47 -6
59 -5 18 -1 22 23 26 37 5 46 3 51 -11z m-107 -20 c-19 -3 -21 -8 -15 -40 4
-20 11 -39 15 -40 16 -6 -2 -22 -24 -22 -19 0 -22 6 -22 40 -1 47 -9 57 -31
39 -10 -8 -33 -14 -53 -14 -29 0 -37 -4 -39 -22 -2 -13 5 -27 19 -37 21 -14
25 -14 46 -1 26 18 31 4 7 -19 -16 -17 -51 -21 -71 -8 -20 13 -27 62 -12 89
11 21 19 24 51 21 23 -2 38 1 38 7 0 16 82 33 99 20 12 -8 10 -11 -8 -13z
m-214 -64 c1 -12 7 -34 14 -50 15 -37 9 -42 -27 -23 -46 24 -60 20 -39 -11 9
-14 15 -27 13 -29 -10 -8 -69 -35 -78 -35 -5 0 -10 7 -10 16 0 9 -6 14 -12 11
-7 -2 -13 -12 -13 -23 0 -10 -7 -19 -15 -19 -8 -1 -27 -9 -41 -18 -28 -19 -59
-14 -59 9 0 11 4 12 19 5 18 -10 31 -6 31 11 0 4 -11 8 -25 8 -44 0 -55 62
-12 74 24 6 37 0 37 -18 0 -9 -10 -12 -27 -10 -28 4 -28 4 2 -7 17 -7 38 -18
48 -27 16 -14 17 -12 17 36 0 29 4 52 8 52 5 0 19 -12 33 -26 13 -14 33 -30
43 -36 17 -9 18 -7 12 23 -3 18 -14 41 -22 51 -15 16 -15 18 1 24 9 4 33 -1
52 -10 42 -20 57 -12 25 13 -24 17 -20 31 8 31 9 0 16 -9 17 -22z m409 -162
c15 -12 17 -18 8 -33 -6 -10 -21 -19 -33 -21 -19 -3 -22 -8 -17 -28 6 -23 4
-24 -38 -24 -35 0 -48 5 -56 20 -13 23 -30 18 -30 -9 0 -14 -11 -20 -45 -25
-45 -7 -65 -3 -65 15 0 5 11 7 25 3 36 -9 31 12 -5 25 -36 12 -41 45 -9 61 22
12 54 -4 43 -21 -3 -5 2 -19 10 -31 15 -21 16 -21 22 -2 24 74 35 88 48 62 20
-41 43 -70 51 -67 6 2 10 23 10 47 0 40 1 42 31 42 16 0 39 -6 50 -14z m57
-51 c-4 -36 -2 -55 5 -55 10 0 26 48 27 80 0 20 35 24 58 7 16 -11 17 -17 7
-39 -9 -18 -18 -24 -31 -21 -13 4 -19 0 -19 -12 0 -13 6 -16 25 -13 14 3 25 1
25 -6 1 -25 30 30 30 56 0 43 26 34 48 -15 13 -31 37 -27 27 4 -7 20 13 27 30
10 9 -8 73 -28 210 -67 68 -19 83 -35 62 -67 -10 -15 -12 -29 -6 -38 13 -20
11 -29 -6 -29 -8 0 -17 11 -21 25 -7 30 -24 33 -24 5 0 -22 -7 -25 -29 -11
-11 7 -12 13 -4 23 6 7 14 28 18 47 6 30 5 33 -11 27 -10 -4 -21 -1 -25 6 -4
7 -12 9 -16 4 -4 -5 -2 -11 5 -13 6 -3 12 -14 12 -26 0 -16 -3 -18 -12 -9 -18
18 -28 15 -28 -9 0 -16 5 -20 20 -16 21 5 28 -7 9 -18 -8 -6 -69 12 -69 20 0
1 7 19 16 40 17 41 17 40 -12 49 -18 5 -24 1 -32 -24 -6 -17 -9 -37 -6 -45 7
-18 3 -19 -30 -3 -21 9 -23 13 -12 22 8 6 17 26 21 44 6 29 4 32 -18 32 -20 0
-26 -6 -31 -35 -7 -34 -36 -51 -36 -21 0 8 -9 24 -20 37 -18 23 -19 23 -21 4
-1 -11 0 -26 1 -34 1 -10 -4 -11 -17 -6 -10 5 -50 13 -89 18 l-70 10 0 59 c1
53 3 58 23 58 20 0 21 -3 16 -55z m-393 -10 c0 -8 -7 -15 -15 -15 -21 0 -19
-23 6 -54 24 -30 23 -31 -8 -40 -19 -6 -23 -4 -23 16 0 30 -29 69 -36 51 -3
-7 -12 -13 -20 -13 -17 0 -17 -5 -4 -31 8 -15 7 -19 -5 -19 -8 0 -15 -7 -15
-15 0 -19 9 -19 32 2 17 15 18 15 18 -3 0 -10 -13 -26 -28 -35 -28 -16 -28
-16 -50 23 -13 21 -27 38 -32 38 -30 0 17 48 52 54 7 1 24 8 38 17 58 34 66
38 78 38 6 1 12 -6 12 -14z m380 -185 c0 -5 -4 -10 -10 -10 -5 0 -10 5 -10 10
0 6 5 10 10 10 6 0 10 -4 10 -10z m-173 -36 c-3 -16 0 -24 9 -24 8 0 14 -4 14
-10 0 -5 -9 -10 -20 -10 -24 0 -28 -35 -6 -43 10 -4 13 -1 10 8 -3 7 3 16 15
20 22 7 28 29 11 40 -5 3 -10 10 -10 16 0 12 51 11 70 -1 12 -8 10 -10 -9 -10
-22 0 -23 -3 -17 -39 6 -37 4 -40 -21 -44 -26 -4 -25 -4 5 -6 35 -1 54 21 33
42 -16 16 -14 30 5 23 10 -4 23 3 34 16 23 28 34 20 21 -16 -7 -17 -7 -26 -1
-26 6 0 10 -4 10 -10 0 -5 -9 -10 -19 -10 -11 0 -23 -9 -26 -21 -5 -16 0 -27
21 -45 40 -33 70 -28 67 11 -1 17 0 24 3 18 8 -18 34 -16 34 1 0 13 29 31 37
23 5 -6 -56 -80 -74 -90 -15 -9 -39 -6 -78 8 -20 7 -20 6 -1 -9 29 -23 14 -20
-61 14 -36 17 -72 30 -79 30 -8 0 -14 4 -14 9 0 4 12 6 28 3 l27 -5 -28 27
c-23 21 -27 32 -23 56 3 17 9 44 12 60 3 17 10 27 16 24 5 -4 8 -17 5 -30z
m201 -64 c29 -27 28 -40 -4 -40 -20 0 -25 -5 -24 -22 3 -38 1 -40 -30 -21 -36
21 -34 35 8 47 34 9 40 24 20 44 -21 21 7 13 30 -8z m-239 -96 c75 -34 153
-74 170 -88 8 -6 21 -11 30 -12 9 -1 29 -2 44 -3 17 0 26 -5 22 -12 -4 -6 -13
-8 -21 -5 -23 9 -27 -14 -6 -37 25 -26 42 -69 42 -103 l0 -25 -26 20 c-15 12
-35 21 -45 21 -16 0 -15 -7 13 -62 17 -35 33 -83 36 -108 l5 -45 -24 21 c-24
21 -59 38 -59 28 0 -3 7 -27 16 -55 9 -27 13 -57 9 -66 -6 -17 -7 -17 -20 0
-11 16 -85 37 -85 25 0 -3 9 -15 20 -28 24 -28 26 -77 4 -108 -17 -25 -34 -29
-34 -9 0 8 -10 23 -23 35 -45 42 -63 -17 -28 -94 22 -48 86 -106 161 -144 118
-59 156 -48 154 45 -2 58 -14 78 -41 68 -7 -3 -13 0 -13 6 0 7 7 14 15 17 20
8 9 24 -16 24 -23 0 -25 15 -4 24 24 9 17 26 -11 26 -14 0 -23 4 -19 10 3 6
15 10 25 10 17 0 19 7 19 50 -2 65 16 105 56 130 66 41 144 17 176 -53 25 -57
24 -72 -16 -177 -19 -50 -35 -109 -35 -130 0 -46 30 -87 68 -93 l27 -4 -28 -2
c-18 0 -37 8 -53 24 -22 23 -25 33 -23 89 2 52 -2 69 -19 91 -29 37 -30 68 -2
37 12 -12 25 -22 31 -22 19 0 40 71 37 128 -3 59 -23 81 -34 38 -5 -20 -13
-26 -32 -26 l-26 0 22 16 c31 21 25 56 -10 68 -42 15 -80 -3 -102 -47 -18 -39
-18 -39 8 -147 33 -136 34 -207 4 -245 -18 -24 -26 -26 -60 -21 -21 3 -38 3
-38 -2 0 -13 23 -38 45 -50 18 -10 17 -11 -12 -12 -40 0 -73 30 -73 65 0 33
-26 32 -34 -1 -14 -55 21 -130 70 -153 13 -6 24 -19 24 -29 0 -29 44 -63 89
-69 23 -3 41 -8 41 -10 0 -18 -24 -43 -41 -43 -18 0 -20 -4 -15 -27 4 -16 16
-40 27 -56 18 -25 19 -28 3 -34 -10 -4 -19 -2 -22 5 -2 7 -10 12 -18 12 -12 0
-12 -4 2 -25 18 -28 12 -58 -10 -49 -8 3 -19 16 -23 27 -6 20 -7 19 -13 -8 -7
-38 -45 -48 -55 -15 -6 20 -7 21 -20 3 -10 -14 -16 -15 -25 -6 -17 16 -5 30
31 38 38 9 52 41 40 96 -11 50 -24 59 -127 93 -80 26 -83 28 -98 69 -8 23 -18
60 -21 82 -9 56 -32 95 -55 95 -20 0 -20 0 0 -32 11 -18 20 -41 20 -50 0 -26
-61 -24 -85 2 -19 21 -45 27 -45 9 0 -6 11 -25 25 -43 17 -23 25 -46 25 -74 0
-35 3 -42 20 -42 23 0 25 -9 8 -45 -13 -30 -23 -31 -74 -8 -25 10 -72 17 -129
19 -49 1 -92 3 -94 3 -2 1 4 12 13 25 18 28 5 46 -19 26 -12 -10 -15 -9 -15 3
0 21 33 39 57 31 10 -4 25 -15 33 -26 10 -12 34 -21 68 -25 l52 -6 0 35 c0 30
-9 46 -55 93 -30 31 -55 62 -55 69 0 15 62 66 79 66 5 0 25 -14 43 -30 20 -18
34 -26 37 -19 2 7 -28 42 -68 78 -53 50 -71 73 -71 93 0 21 4 25 19 21 26 -7
89 25 108 54 23 35 9 39 -27 9 -25 -20 -42 -26 -80 -26 -27 0 -51 -4 -54 -9
-3 -4 -17 -6 -31 -4 -17 4 -27 0 -31 -11 -9 -22 -24 -20 -24 4 0 25 -16 26
-29 3 -9 -15 -10 -14 -11 10 0 32 -6 33 -33 10 -19 -18 -20 -17 -13 10 6 25 4
27 -24 27 -17 0 -39 -6 -50 -12 -15 -10 -22 -10 -31 -1 -10 10 -6 14 13 22 47
18 46 35 0 27 -26 -4 -42 -2 -42 4 0 10 13 14 36 11 23 -3 23 27 1 33 -15 4
-19 8 -11 16 8 8 19 7 40 -4 106 -53 234 -65 332 -32 57 19 112 59 112 82 0
19 -3 18 -52 -16 -47 -33 -108 -50 -108 -31 0 22 29 69 59 94 32 26 31 43 0
26 -35 -18 -89 38 -62 64 3 4 12 -2 20 -13 17 -25 79 -29 69 -5 -4 11 1 15 19
15 18 0 26 -8 35 -36 13 -38 33 -41 38 -6 4 28 28 28 42 2 18 -33 40 -25 40
14 0 19 3 42 7 52 4 12 3 15 -6 10 -7 -5 -17 -20 -22 -34 -9 -24 -11 -25 -20
-9 -6 9 -7 22 -4 27 3 6 1 10 -5 10 -5 0 -20 -15 -31 -32 l-20 -33 4 40 c3 22
8 51 12 64 8 23 7 24 -39 19 -36 -4 -49 -2 -53 9 -9 22 4 27 62 25 50 -2 55 0
55 18 0 17 -23 74 -35 88 -2 2 -12 -1 -22 -6 -10 -5 -39 -13 -65 -16 -40 -6
-48 -4 -57 12 -18 34 -2 60 53 86 28 14 59 34 68 45 10 12 27 21 38 21 26 0
25 15 -2 34 -37 26 6 20 71 -10z m-439 -244 c0 -14 -15 -19 -29 -10 -17 10 -5
31 14 23 8 -3 15 -9 15 -13z m50 -49 c0 -74 9 -106 40 -140 25 -27 36 -31 79
-31 l50 0 -30 -45 c-26 -39 -35 -45 -64 -45 -19 0 -50 8 -69 18 -27 13 -36 23
-36 44 0 15 -8 31 -17 37 -15 8 -16 12 -4 34 8 14 11 32 8 40 -7 18 23 137 34
137 5 0 9 -22 9 -49z m-73 -13 c-3 -8 -6 -5 -6 6 -1 11 2 17 5 13 3 -3 4 -12
1 -19z m29 -236 c13 -33 28 -40 39 -22 5 8 11 8 19 1 7 -6 30 -15 52 -20 38
-9 38 -9 -21 -10 -66 -1 -132 12 -148 28 -15 15 7 60 29 57 9 -1 22 -17 30
-34z"/>
<path d="M1296 1871 c-4 -7 -5 -15 -2 -18 9 -9 19 4 14 18 -4 11 -6 11 -12 0z"/>
<path d="M1080 1850 c0 -5 5 -10 11 -10 5 0 7 5 4 10 -3 6 -8 10 -11 10 -2 0
-4 -4 -4 -10z"/>
<path d="M1455 1850 c-3 -5 1 -10 10 -10 9 0 13 5 10 10 -3 6 -8 10 -10 10 -2
0 -7 -4 -10 -10z"/>
<path d="M1860 1714 c0 -8 5 -12 10 -9 6 4 8 11 5 16 -9 14 -15 11 -15 -7z"/>
<path d="M867 1764 c-4 -4 -7 -14 -7 -23 0 -11 3 -12 11 -4 6 6 10 16 7 23 -2
6 -7 8 -11 4z"/>
<path d="M1125 1394 c-5 -1 -22 -5 -37 -8 -34 -8 -36 -19 -4 -34 20 -9 29 -7
51 12 25 22 20 38 -10 30z"/>
<path d="M1213 1379 c23 -14 21 -38 -5 -67 -15 -16 -17 -23 -8 -20 21 6 53 65
46 83 -3 8 -16 15 -28 15 -20 -1 -21 -2 -5 -11z"/>
<path d="M1280 1350 c0 -5 4 -10 8 -10 5 0 35 -26 66 -57 67 -67 59 -39 -8 31
-44 44 -66 57 -66 36z"/>
<path d="M1190 1340 c0 -5 5 -10 10 -10 6 0 10 5 10 10 0 6 -4 10 -10 10 -5 0
-10 -4 -10 -10z"/>
<path d="M1260 1310 c0 -6 11 -25 25 -42 14 -16 28 -46 31 -66 7 -47 45 -125
63 -130 8 -3 6 6 -8 24 -11 16 -25 49 -30 74 -5 25 -16 61 -24 80 -17 39 -57
81 -57 60z"/>
<path d="M1080 1303 c0 -5 14 -16 30 -25 35 -20 41 -7 8 16 -24 17 -38 20 -38
9z"/>
<path d="M1230 1259 c0 -7 7 -20 16 -30 10 -11 21 -55 29 -118 12 -91 27 -141
41 -141 4 0 3 8 -1 18 -4 9 -11 55 -16 100 -5 46 -17 103 -28 127 -19 43 -41
67 -41 44z"/>
<path d="M1180 1246 c0 -2 9 -24 20 -49 17 -38 20 -63 18 -166 -3 -113 -2
-122 20 -143 12 -12 22 -17 22 -11 0 7 -8 16 -17 22 -16 9 -18 24 -15 141 3
134 -6 193 -33 204 -8 3 -15 4 -15 2z"/>
<path d="M1148 828 c-5 -110 39 -193 135 -253 15 -10 30 -15 33 -12 3 3 -7 14
-23 24 -85 55 -126 124 -126 216 0 60 -16 81 -19 25z"/>
<path d="M920 785 c-14 -8 -36 -15 -50 -16 -20 -1 -21 -2 -6 -6 22 -6 96 16
96 29 0 11 -11 10 -40 -7z"/>
<path d="M920 488 c0 -15 63 -78 77 -78 4 0 -9 17 -28 38 -18 20 -37 41 -41
47 -5 5 -8 2 -8 -7z"/>
<path d="M1233 435 c8 -49 42 -92 78 -100 17 -4 46 -20 65 -37 19 -17 34 -26
34 -20 0 11 -60 62 -73 62 -6 0 -25 11 -43 25 -23 18 -34 36 -39 65 -4 22 -11
40 -17 40 -7 0 -8 -14 -5 -35z"/>
<path d="M1471 205 c0 -11 4 -27 9 -35 9 -13 10 -13 9 0 0 8 -4 24 -9 35 l-9
20 0 -20z"/>
<path d="M820 925 c14 -16 40 -20 40 -6 0 9 -24 21 -42 21 -6 0 -6 -6 2 -15z"/>
</g>
</svg>
